PathFileType	4	(X/Y/Z)	s06c0101.trc
DataRate	CameraRate	NumFrames	NumMarkers	Units	OrigDataRate	OrigDataStartFrame	OrigNumFrames
200	200	4	49	mm	200	1750	2000
Frame#	Time	racr			lacr			c7			jug			rlel			rdr			llel			ldr			s2			lic			ric			lasi			rasi			rpsi			lpsi			rgt			lgt			rth1			rth2			rth3			rth4			rlfc			rmfc			rsh1			rsh2			rsh3			rsh4			rlmal			rmmal			rcal			rtoe			rmt5			lth1			lth2			lth4			lth3			llfc			lmfc			llmal			lcal			lmt5			lsh1			lsh2			lsh3			lsh4			ltoe			SBIKE			LBIKE			RBIKE			
		X1	Y1	Z1	X2	Y2	Z2	X3	Y3	Z3	X4	Y4	Z4	X5	Y5	Z5	X6	Y6	Z6	X7	Y7	Z7	X8	Y8	Z8	X9	Y9	Z9	X10	Y10	Z10	X11	Y11	Z11	X12	Y12	Z12	X13	Y13	Z13	X14	Y14	Z14	X15	Y15	Z15	X16	Y16	Z16	X17	Y17	Z17	X18	Y18	Z18	X19	Y19	Z19	X20	Y20	Z20	X21	Y21	Z21	X22	Y22	Z22	X23	Y23	Z23	X24	Y24	Z24	X25	Y25	Z25	X26	Y26	Z26	X27	Y27	Z27	X28	Y28	Z28	X29	Y29	Z29	X30	Y30	Z30	X31	Y31	Z31	X32	Y32	Z32	X33	Y33	Z33	X34	Y34	Z34	X35	Y35	Z35	X36	Y36	Z36	X37	Y37	Z37	X38	Y38	Z38	X39	Y39	Z39	X40	Y40	Z40	X41	Y41	Z41	X42	Y42	Z42	X43	Y43	Z43	X44	Y44	Z44	X45	Y45	Z45	X46	Y46	Z46	X47	Y47	Z47	X48	Y48	Z48	X49	Y49	Z49	
1750	8.7500	459.279576	1331.891076	-62.831825	482.311739	1337.198678	-374.139224	425.024552	1430.256506	-217.866045	461.666236	1250.308214	-212.000883	526.150571	1078.428707	15.891971	712.309961	921.887968	-57.914245	527.045899	1076.945406	-455.468903	714.631401	914.217362	-392.360028	-52.926787	1117.203290	-218.582923	121.687220	1109.037412	-391.361916	104.525925	1092.056486	-66.266259	141.943506	1053.227916	-355.170573	144.001911	1051.294599	-101.937264	-21.596993	1160.338713	-189.852233	-27.649307	1156.149990	-253.057043	78.877519	1006.137337	-35.383504	94.648359	1050.282794	-422.697531	165.575738	900.627097	-15.184407	241.075557	849.456204	-19.559843	277.544174	771.494270	-32.019168	267.351125	875.237281	-32.698616	327.962277	681.691508	-53.360665	324.090680	658.933074	-163.149277	312.539512	564.057025	-26.836416	318.272628	479.133790	-49.867850	285.859236	398.344155	-51.969806	338.540397	480.795657	-84.434312	263.095365	321.960788	-58.460743	299.138503	322.468133	-149.407300	198.728559	309.380270	-107.497589	455.672849	207.861703	-104.910827	356.501681	218.058220	-37.212679	165.289451	965.352194	-436.966266	249.717857	942.672282	-435.399771	267.831818	971.890589	-419.632476	312.564538	878.952328	-437.127443	370.608412	784.807152	-408.486880	377.346632	768.938791	-292.401328	80.668265	561.300761	-382.970469	12.856705	586.810094	-334.841059	116.859529	421.016101	-408.543294	294.702587	709.646943	-425.413575	242.056481	645.005342	-401.733849	162.213294	608.115316	-402.070200	260.402540	629.861541	-370.449416	182.245178	363.385164	-352.142351	-204.883608	868.233437	-220.930183	-50.267972	79.616896	-420.187214	-50.283345	79.483639	-22.838236	
1751	8.7550	460.166057	1332.278349	-63.519515	482.494276	1337.642466	-375.050740	425.344537	1430.708241	-218.552873	462.273837	1250.775094	-212.663421	526.307789	1078.682758	15.952946	712.431231	921.850067	-57.914074	527.113276	1077.113486	-455.599330	714.595239	914.133922	-392.031153	-52.715545	1116.891340	-218.412253	122.002532	1109.670268	-391.569436	105.456157	1091.904208	-66.224599	142.073462	1054.746870	-355.061550	144.726448	1050.728588	-101.981543	-22.517148	1161.383147	-187.275969	-27.056916	1156.619434	-252.590223	79.168469	1005.382594	-35.593463	94.888014	1052.910775	-422.339648	163.892108	898.073524	-15.135800	238.221484	845.150657	-19.660308	272.908255	766.432507	-32.277533	265.088774	870.300662	-32.760767	322.149985	675.853948	-54.028666	317.692875	653.265604	-163.818816	307.296216	558.640575	-27.142904	313.383094	473.649262	-50.176671	281.261166	392.745150	-52.020349	333.511806	475.250523	-84.725333	259.152440	316.211854	-58.487401	295.103319	316.316104	-149.368117	194.919253	304.310380	-107.586236	450.085299	198.869579	-104.716458	351.057020	210.742462	-37.088468	165.904941	969.366082	-436.745454	250.677884	948.187469	-435.147939	268.345691	977.600498	-419.272832	314.663042	885.469625	-437.219201	374.623010	792.144118	-408.511318	381.322769	776.174139	-292.219382	84.137658	568.534912	-382.968505	15.599522	592.897243	-334.853779	122.447823	429.039623	-408.564533	298.828721	716.714619	-425.291257	246.065824	652.118309	-401.693531	166.067603	615.482584	-402.003638	264.180190	637.056627	-370.253569	188.929595	372.532059	-352.243948	-204.861666	868.244156	-220.949987	-50.258768	79.627537	-420.187421	-50.296667	79.507204	-22.814878	
1752	8.7600	460.980861	1332.726778	-64.254350	482.653682	1338.155427	-375.930931	425.727860	1431.164554	-219.363151	462.938830	1251.313035	-213.289010	526.664771	1079.058797	15.806060	712.542612	921.769063	-57.962062	527.252541	1077.383905	-455.749131	714.613216	914.117924	-391.814124	-51.975784	1117.968968	-217.613206	122.330584	1110.437455	-391.830679	106.344012	1091.777165	-66.174499	142.307447	1056.330896	-355.069330	145.358869	1050.580095	-101.786861	-20.327087	1160.736408	-188.818034	-26.636554	1157.072036	-252.134810	79.189445	1004.599895	-35.880192	95.090272	1055.597056	-421.998372	162.450157	895.785202	-15.064435	235.244245	841.191293	-19.896904	268.282675	761.783267	-32.501929	262.736499	865.793164	-32.865705	316.320116	670.311672	-54.867760	311.235078	647.822449	-164.546106	302.217263	553.587321	-27.457724	308.336017	468.416806	-50.421024	276.608167	387.394394	-52.001469	328.438956	470.224995	-85.056194	254.937482	310.625405	-58.530814	291.272732	309.996803	-149.170681	190.744072	299.962961	-107.598658	444.127849	189.936307	-104.606072	345.197444	203.687207	-37.019676	166.390325	973.349845	-436.516234	251.525008	953.612776	-434.905455	268.668462	983.214259	-418.738416	316.770025	892.162348	-437.809912	378.463532	799.557576	-408.475428	385.156285	783.678883	-292.109182	87.726643	575.420596	-383.103495	18.245787	598.578284	-334.764467	128.357866	436.655981	-408.559151	302.856064	723.785046	-425.203779	249.931180	659.334529	-401.637376	170.024487	622.619248	-401.956010	268.155274	644.314898	-370.179958	196.435172	381.823630	-352.022827	-204.865171	868.239414	-220.924639	-50.273426	79.619398	-420.188013	-50.303043	79.508413	-22.811595	
1753	8.7650	461.888935	1333.200633	-64.962264	482.805306	1338.706237	-376.739857	426.139500	1431.577066	-220.053706	463.717045	1251.960784	-213.825970	527.091227	1079.567923	15.614991	712.658351	921.684116	-58.019609	527.447870	1077.690075	-455.841529	714.625560	914.070664	-391.633585	-51.711718	1117.976785	-218.106817	122.673082	1111.163900	-392.124271	107.189604	1091.673643	-66.116233	142.284230	1057.817530	-354.875123	145.897020	1050.141282	-101.642795	-19.763004	1161.076450	-188.387226	-26.150081	1157.557829	-251.645248	79.324939	1004.084712	-36.090454	95.016188	1058.404031	-421.236828	161.602652	893.968727	-14.224149	232.254087	837.405712	-20.114268	263.547921	757.362731	-32.461127	259.843076	861.528190	-33.238184	310.717848	665.297107	-55.589028	304.759503	642.674582	-165.296917	296.832670	548.814150	-27.996654	303.166009	463.843039	-50.739234	271.725618	382.661586	-51.926935	323.175691	465.444000	-85.396276	250.558913	305.657421	-58.536402	285.447674	304.157152	-148.960986	186.337698	296.165201	-107.601659	437.661459	181.179983	-104.471486	338.907432	196.875856	-36.954535	166.878575	977.318158	-436.399511	252.282677	958.967401	-434.657349	268.906949	988.737395	-418.202860	318.521413	898.651198	-437.796192	382.297528	806.951492	-408.358280	388.796464	791.084431	-291.794596	91.346607	581.951012	-383.119126	20.998609	603.559928	-334.774786	135.079312	444.647227	-408.929278	306.761770	730.895975	-425.036388	253.929138	666.366997	-401.584734	173.941855	629.706053	-401.931244	272.023054	651.408471	-370.002964	204.076822	391.387208	-352.660081	-204.878495	868.287062	-220.850157	-50.266938	79.637182	-420.198263	-50.305059	79.503101	-22.827938	
